PathFileType	4	(X/Y/Z)	C:\Users\Basilio\Documents\Thesis Gigler\squatting_fais\c3dfiles\038\SLS_front_pre4\markers_experimental.trc
DataRate	CameraRate	NumFrames	NumMarkers	Units	OrigDataRate	OrigDataStartFrame	OrigNumFrames
200.000000	200.000000	4	61	mm	200.000000	352	1408
Frame#	Time	FHD			LBHD			RBHD			C7			T10			CLAV			LSHO			LUUPA			LMUPA			LDUPA			LLEP			LMEP			LRAD			LUL			LRFIN			RSHO			RUPA1			RMUPA			RDUPA			RLEP			RMEP			RRAD			RUL			RUFIN			LASI			RASI			USACR			LSACR			RSACR			LTHI1			LTHI2			LTHI3			LTHI4			LLFC			LMFC			LTIB1			LTIB2			LTIB3			LTIB4			LLMAL			LMMAL			LHEE			LMT1			LMT2			LMT5			RTHI			RTHI2			RTHI3			RTHI4			RLFC			RMFC			RTIB1			RTIB2			RTIB3			RTIB4			RLMAL			RMMAL			RHEE			RMT1			RMT2			RMT5			
		X1	Y1	Z1	X2	Y2	Z2	X3	Y3	Z3	X4	Y4	Z4	X5	Y5	Z5	X6	Y6	Z6	X7	Y7	Z7	X8	Y8	Z8	X9	Y9	Z9	X10	Y10	Z10	X11	Y11	Z11	X12	Y12	Z12	X13	Y13	Z13	X14	Y14	Z14	X15	Y15	Z15	X16	Y16	Z16	X17	Y17	Z17	X18	Y18	Z18	X19	Y19	Z19	X20	Y20	Z20	X21	Y21	Z21	X22	Y22	Z22	X23	Y23	Z23	X24	Y24	Z24	X25	Y25	Z25	X26	Y26	Z26	X27	Y27	Z27	X28	Y28	Z28	X29	Y29	Z29	X30	Y30	Z30	X31	Y31	Z31	X32	Y32	Z32	X33	Y33	Z33	X34	Y34	Z34	X35	Y35	Z35	X36	Y36	Z36	X37	Y37	Z37	X38	Y38	Z38	X39	Y39	Z39	X40	Y40	Z40	X41	Y41	Z41	X42	Y42	Z42	X43	Y43	Z43	X44	Y44	Z44	X45	Y45	Z45	X46	Y46	Z46	X47	Y47	Z47	X48	Y48	Z48	X49	Y49	Z49	X50	Y50	Z50	X51	Y51	Z51	X52	Y52	Z52	X53	Y53	Z53	X54	Y54	Z54	X55	Y55	Z55	X56	Y56	Z56	X57	Y57	Z57	X58	Y58	Z58	X59	Y59	Z59	X60	Y60	Z60	X61	Y61	Z61	

353	1.76	-246.9256286621094	1764.37158203125	-1071.512451171875	-401.991424560547	1717.406372070313	-1136.7001953125	-397.1926879882814	1701.238159179688	-992.3203125000002	-447.9872436523439	1525.8271484375	-1069.536499023438	-404.4513549804689	1246.8349609375	-1057.026977539063	-303.8031616210938	1522.861328125	-1076.403198242188	-365.4415893554688	1550.928833007813	-1221.796508789063	-193.3208770751954	1490.361572265625	-1344.421630859375	-166.8563842773438	1524.432250976563	-1316.787109375	-124.3307647705078	1498.042846679688	-1349.77392578125	-62.77217483520509	1501.16357421875	-1348.404541015625	-54.40591430664064	1426.703857421875	-1326.4541015625	nan	nan	nan	231.0351104736329	1507.96923828125	-1303.505615234375	290.5982666015626	1515.225341796875	-1209.786743164063	-355.5319213867188	1542.1552734375	-929.2622070312502	-205.1996612548829	1501.287719726563	-800.2276000976565	-167.1775360107422	1514.588134765625	-827.841491699219	-139.3162536621094	1495.653686523438	-777.4131469726565	-66.23373413085939	1493.6630859375	-761.9921264648439	-59.99347305297853	1415.22265625	-779.7452392578127	209.2314605712891	1486.381469726563	-848.7994384765627	220.8503570556641	1504.234375	-781.1889648437502	290.2633361816407	1519.240478515625	-856.7233886718752	-212.7774505615235	1067.928466796875	-1155.527587890625	-235.1458740234376	1093.692138671875	-905.386657714844	-394.7388000488282	1115.4306640625	-1046.230590820313	-404.5552978515626	1084.787719726563	-1072.275756835938	-407.962127685547	1087.385131835938	-1016.459838867188	-258.0920104980469	742.2566528320314	-1187.580078125	-232.9056701660157	662.1240844726564	-1173.522094726563	-186.3974914550782	665.3602294921876	-1151.77587890625	-264.3576354980469	615.6968383789064	-1153.635864257813	-263.9746704101563	552.3966064453126	-1142.050903320313	-258.2523193359376	549.6181030273439	-1021.378723144531	-246.5968627929688	365.7120971679688	-1060.222900390625	-290.8742065429688	322.5496215820313	-1124.275024414063	-254.2545471191407	318.0695800781251	-1093.885498046875	-275.6080322265626	241.5171661376954	-1061.458740234375	-368.8558959960938	112.8132476806641	-1075.61865234375	-328.1066589355469	128.9095306396485	-1005.696350097656	-417.1797485351564	93.41987609863283	-1017.739318847656	-216.7354736328126	47.51772689819337	-1018.685791015625	-210.0835418701172	46.60044097900391	-1069.795166015625	-257.4469299316407	32.75163650512696	-1113.785034179688	-245.2130432128907	823.2453613281252	-829.7471923828127	-199.0433502197266	774.6717529296877	-823.625427246094	-167.2790679931641	781.3287353515627	-831.7866821289065	-215.7569580078126	689.9719848632814	-834.080749511719	-182.35009765625	559.3837890625001	-834.914978027344	-183.7952728271485	550.3569335937501	-954.3825683593752	-129.7545013427735	383.8386840820313	-848.3433837890627	-203.7425231933594	303.4721069335938	-808.0386962890627	-157.8446197509766	307.9378662109376	-817.1206665039065	-144.3703765869141	255.9110260009766	-842.6019287109377	-202.2821502685547	132.8467407226563	-804.7419433593752	-171.5800018310547	140.2725982666016	-884.3227539062502	-257.2211303710938	79.73782348632814	-867.482604980469	-40.08423614501954	89.9966278076172	-853.0883789062502	-44.13678741455079	95.02644348144533	-805.8718261718752	-83.89971160888673	69.87711334228517	-764.5091552734376	
354	1.765	-247.0411224365235	1764.129516601563	-1071.827270507813	-402.1470031738282	1717.1787109375	-1137.231079101563	-397.3786926269532	1701.1220703125	-992.800720214844	-448.2019042968751	1525.797729492188	-1070.07666015625	-404.2068481445314	1247.009887695313	-1057.454711914063	-303.8894042968751	1522.760620117188	-1076.845703125	-365.3777160644532	1550.845947265625	-1222.241088867188	-193.3274993896485	1490.271240234375	-1344.928466796875	-166.9831085205078	1524.260620117188	-1317.2216796875	-124.4314575195313	1497.9892578125	-1350.21533203125	-62.80058670043947	1500.982543945313	-1348.917724609375	-54.56594467163087	1425.7412109375	-1326.974243164063	nan	nan	nan	231.0067443847657	1507.789306640625	-1303.938232421875	290.4843750000001	1514.994262695313	-1210.24609375	-355.7629699707032	1542.03173828125	-929.779968261719	-205.5363311767579	1501.084106445313	-800.7471923828127	-167.4337310791016	1514.525634765625	-828.2566528320315	-139.6328887939453	1495.509643554688	-777.7840576171877	-66.56694793701173	1493.460815429688	-762.4116210937501	-60.33224487304689	1415.0517578125	-780.1571044921877	208.9264373779297	1486.268798828125	-849.1503906250002	220.6513977050782	1504.078979492188	-781.354919433594	290.0474243164063	1519.0576171875	-856.9064941406252	-212.9960327148438	1067.793579101563	-1155.848022460938	-235.5901184082032	1093.595703125	-905.6894531250002	-394.9485168457032	1115.15380859375	-1046.58251953125	-404.6766052246095	1084.756469726563	-1072.640502929688	-408.5576782226564	1086.987670898438	-1016.886291503906	-258.2337341308594	741.7993164062501	-1187.999633789063	-232.8625793457032	662.0682983398439	-1174.013671875	-186.7232971191407	665.9437866210939	-1152.524169921875	-263.9077148437501	615.2089233398439	-1154.021484375	-263.8792114257813	552.2471313476564	-1142.459594726563	-257.8654174804688	549.4324340820314	-1021.775451660156	-246.4209289550782	365.5974731445313	-1060.703735351563	-290.8504028320313	322.4589233398438	-1124.6875	-254.1354217529297	317.9585571289063	-1094.207397460938	-275.5252685546876	241.4763641357422	-1061.819213867188	-368.9260864257813	112.7376708984375	-1075.801513671875	-327.9360656738282	128.9537353515625	-1005.896789550781	-417.3178710937501	93.61618041992189	-1017.343139648438	-217.2495880126954	47.89554977416993	-1018.820922851563	-210.1068420410157	46.48656082153321	-1069.845825195313	-257.3610534667969	32.68704986572266	-1113.811401367188	-244.7575073242188	823.081970214844	-829.8612060546877	-198.605453491211	774.8440551757815	-823.4620361328127	-166.5808410644532	781.7542114257815	-832.0600585937502	-214.9524536132813	690.2030639648439	-834.4980468750002	-180.970199584961	559.6040039062501	-835.0794067382815	-182.4633483886719	550.8162231445314	-954.5792236328127	-127.1638107299805	384.7511596679689	-848.2073974609377	-200.3181457519532	303.6122131347657	-808.1033935546877	-154.6422729492188	308.3870544433594	-817.3401489257815	-140.7253570556641	256.5267639160157	-842.7229003906252	-197.7909240722657	132.9184265136719	-804.8071289062502	-166.7242431640625	140.4635467529297	-884.5652465820315	-253.4095764160157	79.55453491210939	-868.7359008789065	-34.97245025634766	91.15217590332033	-852.9443359375002	-39.0841178894043	96.2262878417969	-805.8399658203127	-79.17669677734376	70.75006103515626	-764.4933471679689	
355	1.77	-247.0809326171876	1764.007080078125	-1072.28369140625	-402.2698364257814	1717.082397460938	-1137.761596679688	-397.5792846679689	1700.933227539063	-993.3203125000002	-448.2590637207032	1525.579223632813	-1070.609375	-404.457244873047	1246.912475585938	-1057.892944335938	-304.0887451171876	1522.569213867188	-1077.315063476563	-365.3737487792969	1550.779418945313	-1222.70263671875	-193.4476165771485	1490.132568359375	-1345.447631835938	-167.0294036865235	1524.08740234375	-1317.677490234375	-124.4646072387696	1497.883544921875	-1350.6533203125	-62.89539337158205	1500.815185546875	-1349.41357421875	-54.7194175720215	1425.646606445313	-1327.562744140625	nan	nan	nan	231.0137786865235	1507.488647460938	-1304.466430664063	290.5157775878907	1514.698608398438	-1210.696166992188	-355.9539184570313	1541.904541015625	-930.2849121093752	-205.8187866210938	1500.87158203125	-801.0004882812502	-167.7242889404297	1514.421264648438	-828.6759033203127	-139.8448486328125	1495.382202148438	-778.3146972656252	-66.83768463134767	1493.29248046875	-762.7521362304689	-60.57165908813478	1414.882080078125	-780.5347290039065	208.7385559082032	1486.177368164063	-849.3277587890627	220.3371124267579	1504.048217773438	-781.473083496094	289.8280334472657	1519.031494140625	-857.068054199219	-213.2121582031251	1067.596313476563	-1156.0751953125	-236.0360260009766	1093.5107421875	-905.9902343750002	-395.2909240722657	1115.42578125	-1047.134399414063	-405.175750732422	1084.589965820313	-1073.028076171875	-408.5896606445314	1086.9765625	-1017.051025390625	-258.2926025390626	741.6395263671876	-1188.425537109375	-232.8267974853516	662.0037841796876	-1174.551391601563	-186.2822418212891	665.5324096679689	-1153.075805664063	-264.1728515625001	615.3341674804689	-1154.441772460938	-263.7402343750001	552.0913085937501	-1142.880981445313	-257.5172729492188	549.3428955078126	-1022.160766601563	-246.1813507080079	365.4526367187501	-1061.161865234375	-290.8550720214844	322.3306274414063	-1125.116455078125	-253.9184265136719	317.7617797851563	-1094.692749023438	-275.4341430664063	241.3713836669922	-1062.271728515625	-368.3626708984376	112.3987426757813	-1075.888427734375	-328.0199890136719	128.5205535888672	-1006.088134765625	-417.323455810547	93.66110992431642	-1017.498962402344	-217.2150421142579	48.1132049560547	-1018.870788574219	-209.4146575927735	46.52769851684571	-1069.649536132813	-257.3735961914063	32.5935401916504	-1113.859130859375	-244.3870239257813	823.2366943359377	-829.8687744140627	-197.9889068603516	775.1465454101565	-823.5068359375002	-166.0733947753907	782.0374755859377	-832.2722167968752	-214.2309265136719	690.4227905273439	-834.724548339844	-179.9275665283203	559.9914550781251	-835.194274902344	-181.3110656738282	550.8469238281251	-954.7675781250002	-124.5332336425782	385.4118652343751	-848.334655761719	-197.4038238525391	303.6025390625001	-808.464294433594	-151.5395965576172	308.8863525390626	-817.2384033203127	-137.1359558105469	257.1790466308594	-842.9497680664065	-193.2532958984376	132.4158935546875	-805.2181396484377	-161.7741088867188	140.32177734375	-884.646179199219	-246.3141784667969	78.99263763427736	-868.0588989257815	-29.73760986328126	91.61533355712892	-852.8410644531252	-33.69352722167969	96.5542907714844	-805.8333129882815	-74.35987854003908	71.6362762451172	-764.4467163085939	
356	1.775	-247.200668334961	1763.58056640625	-1072.639892578125	-402.2891845703126	1716.928466796875	-1138.2216796875	-397.7273864746095	1700.706909179688	-993.7217407226565	-448.4860839843751	1525.51904296875	-1071.151000976563	-404.7247009277345	1246.7470703125	-1058.340087890625	-304.0163574218751	1522.425170898438	-1077.854858398438	-365.3539733886719	1550.617065429688	-1223.226318359375	-193.6037597656251	1489.864990234375	-1345.9248046875	-167.0721740722657	1523.974609375	-1318.076782226563	-124.521713256836	1497.72998046875	-1351.099975585938	-63.02245712280275	1500.692138671875	-1349.885498046875	-54.72854232788087	1425.866333007813	-1328.023071289063	nan	nan	nan	230.9745635986329	1507.250854492188	-1304.970458984375	290.3695983886719	1514.426147460938	-1211.123291015625	-356.2003784179688	1541.802856445313	-930.7407226562502	-206.0762176513672	1500.79638671875	-801.3628540039065	-168.0054321289063	1514.257690429688	-829.1263427734377	-140.1298065185547	1495.274536132813	-778.5855712890627	-67.09506225585939	1493.177978515625	-762.9692993164064	-60.79531860351564	1414.711303710938	-780.8946533203127	208.5064697265626	1486.124633789063	-849.5197753906252	220.0116577148438	1503.900634765625	-781.5885009765627	289.6122436523438	1518.975219726563	-857.1419067382815	-213.5607452392579	1067.437133789063	-1156.314819335938	-236.4667205810547	1093.306030273438	-906.2392578125002	-395.6003723144532	1115.232299804688	-1047.466552734375	-405.5047607421876	1084.363403320313	-1073.33544921875	-408.6022033691407	1086.887939453125	-1017.258117675781	-258.4819030761719	741.5784301757814	-1188.854858398438	-232.8834533691407	661.9080200195314	-1175.190673828125	-186.3537902832032	665.4976806640626	-1153.53369140625	-263.7002563476563	614.8480834960939	-1154.917114257813	-263.6443176269532	551.9464721679689	-1143.336547851563	-257.1952514648438	549.2468872070314	-1022.562866210938	-245.9826965332032	365.2942199707032	-1061.662841796875	-290.9454345703126	322.2675781250001	-1125.477905273438	-253.9854278564454	317.7453613281251	-1095.36962890625	-275.5179443359376	240.5056152343751	-1063.10986328125	-368.4274597167969	112.3333358764649	-1076.08935546875	-327.9095764160157	128.7189025878907	-1006.631530761719	-417.1334838867189	93.43611907958986	-1017.928527832031	-216.6264648437501	47.71342849731446	-1018.621520996094	-209.4218139648438	46.49240875244141	-1069.671508789063	-257.3613891601563	32.48669433593751	-1113.930908203125	-244.1625518798829	823.5252685546877	-829.9656982421877	-197.5736236572266	775.4041137695315	-823.6709594726565	-165.6971588134766	782.4790649414065	-832.3530273437502	-213.3857421875001	690.6604003906251	-834.8209228515627	-178.5933837890625	560.1382446289064	-835.393249511719	-179.7601623535157	551.2490844726564	-954.951354980469	-121.9046325683594	385.8387145996095	-848.7066650390627	-194.2494659423829	303.7173767089844	-808.7419433593752	-148.2992401123047	309.1978454589844	-817.6494140625002	-133.5943756103516	257.6549682617188	-842.8448486328127	-188.7626190185547	132.709228515625	-805.4041748046877	-157.5048065185547	141.5025177001953	-884.6243286132815	-241.1931762695313	78.06731414794923	-868.4699707031252	-24.19749069213868	94.22266387939455	-852.7230224609377	-29.27541542053223	98.34196472167972	-805.5201416015627	-69.45339202880861	72.62221527099611	-764.3596801757814	
